<?xml version="1.0" encoding="utf-8"?>
<!-- Generator: Adobe Illustrator 18.1.1, SVG Export Plug-In . SVG Version: 6.00 Build 0)  -->
<!DOCTYPE svg PUBLIC "-//W3C//DTD SVG 1.1//EN" "http://www.w3.org/Graphics/SVG/1.1/DTD/svg11.dtd">
<svg version="1.1" id="Layer_1" xmlns="http://www.w3.org/2000/svg" xmlns:xlink="http://www.w3.org/1999/xlink" x="0px" y="0px"
	 viewBox="0 0 224.7 163.1" enable-background="new 0 0 224.7 163.1" xml:space="preserve">
<g>
	<path d="M194.6,132.9c0.1-1.2,0.3-2.3,0.3-3.4c0.2-3.6,0.4-7.2,0.6-10.8c0.2-2.8,0.6-5.6,0.9-8.4c0.3-2.8,0.7-5.6,1-8.3
		c0.1-1.2,0.2-2.5-0.5-3.5c-0.8-0.3-1.3,0.1-1.6,0.6c-0.8,1-1.6,2-2.2,3.2c-2.2,4.3-3.8,8.8-4.7,13.6c-0.3,1.8-0.4,3.6-0.6,5.4
		c-0.2,3.4-0.4,6.8-0.5,10.3c-0.1,1.9-1,2.8-2.9,2.6c-2.9-0.3-5.8-2.3-5.9-6c0-0.9,0-1.9,0-2.8c-0.1,0-0.2-0.1-0.3-0.1
		c-0.2,0.3-0.4,0.7-0.7,1c-1.5,2.2-2.9,4.5-4.5,6.6c-1.1,1.5-2.5,2.8-4.3,3.5c-1.1,0.4-2.3,0.7-3.5,0.9c-1.8,0.2-3.2-0.7-4.1-2.2
		c-0.9-1.4-1.2-2.9-1.3-4.4c-0.1-1.1-0.1-2.2-0.2-3.3c0-0.3-0.1-0.7-0.4-1c-0.3,0.7-0.7,1.3-1,2c-1.8,3.6-3.9,7-6.8,9.8
		c-1.5,1.4-3.1,2.3-5.2,2.3c-1.4,0-2.4-0.6-3.2-1.7c-1.2-1.7-1.5-3.7-1.7-5.7c0-0.6-0.1-1.1-0.1-1.7c-0.1,0-0.2-0.1-0.3-0.1
		c-0.2,0.4-0.5,0.9-0.7,1.3c-1.2,2.3-2.5,4.6-4.4,6.5c-1.1,1.1-2.2,2.1-3.4,3c-1.1,0.8-2.4,1.2-3.7,1.3c-1.8,0.1-3-0.7-3.8-2.2
		c-0.9-1.5-1.1-3.2-1.3-4.9c-0.6-4.8-0.1-9.6,0.5-14.4c0.1-0.7,0.1-1.4,0.2-2.3c-1.5,0.8-2.8,1.6-4,2.3c-0.4,2.3-0.8,4.4-1.3,6.6
		c-1.1,4.7-2.8,9.2-5.7,13.1c-1.2,1.7-2.7,3.1-4.4,4.2c-2.6,1.6-5.3,2.2-8.3,1.6c-2.5-0.5-4.3-2-5.7-4.1c-1.3-2.1-2-4.5-2.4-6.9
		c-1.1-8-0.3-15.8,2.7-23.3c0.9-2.2,2-4.2,3.6-5.9c1.6-1.5,2.8-1.7,4.6-0.4c0.4,0.3,0.7,0.5,1.2,0.9c0.3-0.4,0.6-0.8,0.8-1.2
		c1.2-1.7,2.7-3.1,4.7-3.8c3.4-1.2,6.2-0.2,8.1,2.8c1.3,2,1.9,4.3,2.1,6.7c0.2,1.9,0.3,3.8,0.4,5.9c0.5-0.3,0.9-0.5,1.4-0.7
		c2.1-1,3.3-2.5,3.6-5c0.4-2.8,1.2-5.5,2-8.1c1-3.2,4.6-4.4,7.5-2.8c1.2,0.7,1.8,1.6,1.5,3c-0.4,2.1-0.9,4.1-1.2,6.1
		c-0.8,4.4-1.6,8.8-2.2,13.3c-0.3,2,0.1,4.1,0.2,6.1c0,0.3,0.1,0.6,0.3,0.9c0.5,0.9,1.2,1.3,2.1,0.7c0.9-0.6,1.8-1.4,2.4-2.2
		c2.3-3.1,3.5-6.7,3.9-10.5c0.7-5.7,1.7-11.3,3.2-16.9c1-3.5,3.4-4.5,6.5-4c2.2,0.4,3.2,1.9,2.8,4.1c-1,4.9-2.1,9.8-2.9,14.8
		c-0.5,3.2-1.1,6.4-0.4,9.7c0.2,0.9,0.2,1.9,1.3,2.1c1.1,0.3,1.8-0.3,2.4-1.1c1.3-2,2.5-4,3.7-6c1.7-3,2.3-6.3,2.7-9.7
		c0.2-1.9,0.5-3.7,0.7-5.6c0.1-0.4,0-0.9,0-1.5c-1,0.1-1.9,0.2-2.8,0.3c-1.7,0.3-2.2-0.3-1.7-2c0.5-1.9,1.6-3.4,3.6-3.9
		c0.6-0.2,1.3-0.4,2-0.7c1.1-6.9,2.3-13.8,3.4-20.8c-1.7-1.8-3.1-3.8-3.8-6.3c-0.1,0-0.2,0-0.3,0c-0.2,0.4-0.5,0.9-0.7,1.3
		c-1.6,3.2-3.4,6.2-5.8,8.9c-1.5,1.7-3.1,3-5.5,3.3c-2.1,0.2-3.4-0.4-4.4-2.3c-0.8-1.6-1.2-3.3-1.3-5c-0.2-4.3,0.1-8.6,0.7-12.9
		c0.4-3.4,0.8-6.9,1.1-10.3c0.1-0.8-0.1-1.7-0.6-2.3c-0.7-0.2-1.2,0.1-1.6,0.6c-0.8,1-1.6,2-2.2,3.2c-3,5.9-4.9,12.1-5.2,18.8
		c-0.1,3.6-0.3,7.2-0.5,10.8c-0.1,1.3-0.7,2-2,2.2c-3.2,0.4-6.2-1.8-6.6-5c-0.2-1.2-0.2-2.4-0.4-3.9c-0.4,0.7-0.7,1.1-0.9,1.6
		c-1.6,2.9-3.5,5.6-5.9,7.9c-1.8,1.7-3.9,2.7-6.5,2.6c-1.4,0-2.6-0.6-3.4-1.8c-0.9-1.2-1.4-2.5-1.5-3.9c-0.2-1.3-0.2-2.7-0.3-4
		c0-0.4,0-0.8-0.3-1.3c-0.2,0.4-0.5,0.8-0.7,1.2c-1.6,3.3-3.5,6.4-5.9,9.2c-1.4,1.6-2.9,3-5.1,3.5c-2.3,0.6-4-0.1-5-2.2
		c-0.6-1.3-1.1-2.7-1.2-4.1c-0.3-2.4-0.4-4.9-0.3-7.3c0.2-6.4,1.1-12.8,2.5-19c0-0.2,0-0.4,0.1-0.7c-1.6,0.3-3.1,0.5-4.7,0.8
		c-2.8,9.8-5.9,19.7-11.1,29c1.2,0,2,0,2.9,0c2.4,0,4.6,0.5,6.7,1.6c3.8,2,6.1,5.2,6.9,9.4c0.7,3.6,0.5,7.3-0.8,10.8
		c-0.4,1.3-1.2,2.5-2,3.6c-1.5,2-4.5,2.7-6.9,1.9c-1.5-0.5-1.9-1.5-1.5-3.2c0.6-2.3,1.2-4.6,1.6-6.9c0.5-2.4,0.5-4.9,0.1-7.3
		c-0.1-0.7-0.4-1.4-0.7-2c-1.1-1.9-3-2.6-5-1.8c-2.7,1-3.8,3.2-4.3,5.9c-0.6,3.7,0.2,7.3,1.2,10.8c1.3,4.2,3.5,8.1,5.6,12
		c1.7,3.3,3.5,6.5,5.1,9.8c1.7,3.5,2.5,7.1,2.2,11c-0.3,3.8-2,7-4.8,9.5c-3.7,3.4-8.2,5.2-13.1,5.3c-7.8,0.1-14.1-5.1-15.6-12.4
		c-0.5-2.5-0.7-5,0-7.4c0.6-2,1.7-3.6,3.9-4c2.4-0.5,4.4,0.4,5.8,2.5c0.9,1.3,1.3,2.8,1.4,4.4c0.2,2.5,0.6,5,1.6,7.3
		c0.4,0.9,0.9,1.8,1.5,2.7c1.9,2.7,5.9,1.4,6.9-0.6c0.8-1.8,1.1-3.6,1-5.6c-0.1-3.7-1.6-7-3.4-10.2c-2.3-4.2-4.7-8.4-7-12.6
		c-1.6-3-3.1-6.1-3.7-9.5c-1.1-5.5-0.8-10.9,1.9-16c0.1-0.2,0.2-0.4,0.3-0.7c-2.5-2.3-2.6-5.5-3-8.7c-0.1,0-0.2,0-0.3,0
		c-0.2,0.4-0.5,0.7-0.7,1.1c-1.2,2.4-2.6,4.7-4.5,6.6c-1.2,1.2-2.5,2.3-3.9,3.2c-0.9,0.6-2.1,0.8-3.1,1c-1.7,0.2-2.9-0.5-3.8-1.9
		c-0.8-1.3-1.2-2.7-1.4-4.2c-0.4-2.9-0.5-5.8-0.2-8.7c0-0.3,0-0.6-0.1-1c-4,0.6-7.9,1.2-11.9,1.7c-0.2,1.5-0.4,2.9-0.6,4.4
		c-0.4,3.9-0.9,7.8-1.3,11.7c-0.3,2.5-0.4,5.1-0.6,7.6c-0.2,3.3-0.5,6.6-0.7,9.8c-0.1,1.6-0.1,3.2-0.1,4.8c0,1.7-0.3,2.1-2,2.5
		c-2.6,0.6-5-0.2-7.2-1.6c-2.3-1.5-3.4-3.6-3.5-6.3c-0.2-4.1,0-8.2,0.4-12.3c0.3-3.3,0.6-6.6,0.9-9.8c0.3-2.7,0.6-5.4,0.9-8.1
		c0.1-0.5,0.1-1,0.1-1.6c-0.5,0-0.9-0.1-1.4-0.1c-1.5,0-3,0-4.5,0c-0.5,0-1-0.2-1.5-0.3c-0.4-2.6,1-4.2,2.5-5.7c1.6-1.7,3.8-1.5,6-2
		c1-5.9,2-11.8,3.1-17.6c1.1-5.8,2.3-11.7,3.4-17.7c-0.9,0.1-1.6,0.2-2.3,0.3c-4.2,0.8-8.5,1.2-12.6,2.4c-2.4,0.7-4.6,1.7-6.5,3.4
		c-2,1.7-3.2,3.9-3.2,6.6c0,0.2-0.1,0.3-0.1,0.6c-0.8-0.1-1.1-0.7-1.1-1.3c-0.3-1.9-0.5-3.8-0.3-5.8c0.4-4,2.2-7.3,5.2-10
		c2.4-2.2,5.3-3.7,8.4-4.9c4.7-1.7,9.5-2.9,14.5-3.7c5.1-0.8,10.2-1.4,15.3-2.2c4.9-0.7,9.8-1.4,14.4-3.2c1.6-0.6,3.1-1.4,4.5-2.3
		c2.9-1.9,3.7-3.6,3.8-7c0.6-0.5,1.2-0.4,1.8-0.2c0.8,0.9,0.6,2,0.5,3c-0.2,3.5-0.7,6.9-2,10.1c-1.2,2.8-2.8,5.3-4.8,7.5
		c-2,2.2-4.7,3.3-7.5,3.7c-3.4,0.5-6.8,0.8-10.2,1.1c-3.8,0.4-7.5,0.7-11.3,1.1c-0.2,0-0.5,0.1-1,0.3c0.7,0.7,1.3,1.2,1.9,1.7
		c0.9,0.8,1.9,1.6,2.7,2.5c0.5,0.5,0.9,1.2,1.3,1.9c0.4,0.8,0.5,1.6,0.3,2.6c-1.5,7.7-2.9,15.5-4.3,23.2c-0.1,0.4,0,0.8,0,1.4
		c4-1,7.9-2,11.8-3c0.2-1,0.4-1.9,0.6-2.8c0.8-3.2,1.5-6.5,2.3-9.7c0.9-3.4,4.2-3.9,6.5-3.3c2.1,0.6,2.9,2,2.5,4.2
		c-0.3,1.7-0.8,3.3-1.1,5c-0.8,4.4-1.6,8.7-2.3,13.1c-0.3,1.9-0.1,3.9-0.1,5.9c0,1,0.2,2.2,1.3,2.6c1.1,0.4,1.9-0.4,2.6-1.2
		c2.3-2.5,3.7-5.5,4.4-8.7c0.6-3,0.8-6,1.4-9c0.8-3.9,1.6-7.8,2.6-11.6c0.8-3,4.1-4.3,7-3.1c1.8,0.8,2.4,1.9,2,3.8
		c-0.9,4.2-1.8,8.4-2.6,12.7c-0.6,3.4-1.1,6.8-0.9,10.2c0,0.8,0.2,1.7,0.4,2.5c0.4,1.5,1.5,1.8,2.8,0.9c0.4-0.3,0.7-0.7,1-1.1
		c2-2.6,3.5-5.6,4.7-8.7c2.1-5.5,3.4-11.2,4.1-17.1c-0.5-0.5-1.1-1.1-1.5-1.7c-1.5-2.1-2.4-4.3-2.5-6.9c-0.2-3.4,0.5-6.7,2.4-9.6
		c0.6-0.9,1.3-1.8,2.1-2.5c1.4-1.3,3.1-1.1,4.2,0.4c0.4,0.5,0.7,1.1,0.9,1.8c0.5,1.9,0.9,3.9,0.6,5.9c-0.4,2.7-0.9,5.4-1.4,8.1
		c0,0.3,0,0.5-0.1,1c0.6-0.2,1.1-0.3,1.6-0.5c1.7-1,3.3-2,4.9-3.2c1.8-1.3,3.6-1.6,5.7-0.8c1.7,0.7,2.3,1.7,2,3.4
		c-0.4,2.4-1,4.7-1.4,7.1c-0.7,3.9-1.4,7.9-2,11.8c-0.3,2.1-0.4,4.4,0.1,6.5c0.5,1.9,1.8,2.3,3.2,0.9c1-1.1,1.9-2.3,2.5-3.6
		c1.2-2.3,2.4-4.6,3.3-7c0.5-1.3,0.5-2.9,0.7-4.3c0.4-2.5,0.7-5,1-7.5c0-0.2,0-0.3,0-0.6c-1.5-0.4-3,0.6-4.5,0
		c-0.5-1.8,0.1-3.3,1.3-4.3c1.2-1,2.7-1.6,4.3-2.4c0.3-1.7,0.6-3.7,0.9-5.7c1-5.7,1.9-11.3,2.9-17c0.3-1.9,1.4-3.1,3.2-3.5
		c1.9-0.4,3.8-0.1,5.1,1.5c0.4,0.5,0.6,1.3,0.6,2c0.1,0.7-0.1,1.4-0.2,2.1c1.4,1.1,5.4,1.7,8,1.2c0.1-0.4,0.3-0.9,0.4-1.3
		c1.2-5.8,2.6-11.6,4.8-17.1c1.5-3.7,3.5-7.2,6.5-10c2.3-2.1,4.9-3.6,8-4c4.2-0.6,7.3,1.2,9.8,4.5c1.8,2.5,2.2,5.4,2.2,8.4
		c-0.1,5.2-2.5,9.4-5.8,13.1c-4.2,4.7-9.6,7.8-15.4,10.1c-0.5,0.2-1,0.4-1.5,0.6c-0.1,0-0.1,0.1-0.4,0.2c-0.9,5.3-1.6,10.8-2.3,16.3
		c0.1,0,0.2,0.1,0.3,0.1c0.2-0.3,0.3-0.6,0.5-1c1.2-2.2,2.2-4.4,3.5-6.4C144,45,145,43.9,146,43c0.9-0.8,2-1.4,3.1-1.7
		c2.6-0.7,4.7,0.4,6,2.8c1.4,2.5,1.6,5.3,1.2,8.1c-0.6,4.4-1.4,8.8-1.9,13.2c-0.2,1.9-0.1,3.8,0,5.7c0,0.9,0.2,2.1,1.3,2.4
		c1.1,0.3,1.9-0.5,2.4-1.3c1.1-1.7,2.2-3.4,3.2-5.2c0.3-0.6,0.3-1.5,0.3-2.2c-0.3-6.1,0.8-12,3.6-17.4c1.7-3.4,4-6.3,7.1-8.5
		c1.9-1.3,4-2.2,6.3-2.3c5.4-0.3,9.5,3.7,10.4,8c1.2,5.6-0.4,10.6-4.1,14.9c-2.1,2.4-4.8,4.2-8,4.8c-1.1,0.2-2.3,0.2-3.4,0.3
		c-0.6,0-1.1,0-1.9,0c0.1,3.4,0.7,6.5,3.5,8.8c0.9,0.7,2.1,1.1,3.3,0.8c1-0.2,2.1-0.5,3.1-0.9c1.8-0.7,3.2-1.9,4.5-3.3
		c3.5-3.4,6-7.4,7.7-11.9c2-5.1,3.1-10.4,4-15.8c0.1-0.4,0-0.9,0.1-1.4c-1.8-1.6-3-3.6-3.5-6c-1.2-5.1,0-9.7,3.2-13.8
		c0.2-0.3,0.5-0.5,0.8-0.7c1.8-1.4,3.4-1.2,4.6,0.7c0.8,1.3,1.1,2.8,1.2,4.3c0.3,3.6-0.4,7-1.2,10.4c-0.1,0.5-0.2,1-0.3,1.8
		c0.7-0.2,1.2-0.3,1.6-0.6c1.6-1,3.3-2,4.8-3.1c1.7-1.3,3.5-1.6,5.5-0.9c1.9,0.6,2.6,2,2.2,4c-1,5.1-2,10.1-2.9,15.2
		c-0.4,2.3-0.5,4.6-0.6,6.9c0,1,0.1,2.1,0.4,3.2c0.4,1.6,1.7,2,2.9,0.8c0.9-1,1.8-2.1,2.5-3.3c1.2-2.1,2.1-4.2,3.2-6.3
		c0.6-1.2,1-1.5,1.7-1.2c0.8,0.3,1,1,0.5,2.1c-1.8,4.9-3.8,9.8-6.9,14.1c-1.1,1.6-2.5,3.1-3.8,4.6c-1,1.1-2.4,1.8-3.9,2.1
		c-1.9,0.4-3.3-0.2-4.4-1.8c-1.2-1.9-1.6-4-1.7-6.1c-0.3-7.2,0.3-14.4,1.7-21.5c0.3-1.3,0.5-2.6,0.7-4c-1.6,0.3-3.1,0.5-4.8,0.8
		c-2.6,9-5.3,18.1-10,26.5c0.5,0.3,0.9,0.5,1.3,0.8c1.2,0.8,1.6,1.9,1.4,3.3c-1.1,6.4-2.3,12.8-3.3,19.2c-0.4,2.2-0.6,4.4-0.8,6.6
		c0,0.3,0,0.6,0.2,0.9c0.2-0.5,0.4-0.9,0.7-1.4c1.2-2.8,2.5-5.5,4.6-7.8c0.8-0.9,1.8-1.8,2.8-2.4c3-1.7,6.2-1.1,8,2.4
		c1.1,2.1,1.4,4.4,1.1,6.8c-0.3,2.8-0.9,5.6-1.2,8.4c-0.3,2.1-0.5,4.2-0.7,6.4c-0.2,2.4-0.4,4.8-0.6,7.2c-0.1,1.3-0.2,2.7-0.3,4
		c-0.2,3.5-0.5,7-0.7,10.6c0.5,0.2,0.9,0.4,1.3,0.6c4.7,2.5,7.5,6.3,7.6,11.7c0.1,4.4-3,8-7.3,8.9c-2,0.4-4.1,0.5-6-0.5
		c-1.4-0.7-2.5-1.9-3.3-3.3c-1.2-2.1-1.7-4.4-2-6.7c-0.1-1.5-0.2-3.1-0.4-4.8c-0.5,0.1-0.9,0.2-1.4,0.3c-3.3,1-6.2,2.8-9,4.9
		c-4.7,3.6-9.4,7.3-14.2,10.9c-2.4,1.9-4.9,3.7-7.8,4.9c-5.1,2.2-10.3,2.9-15.6,0.7c-5.1-2.2-8.4-6-9.6-11.5c-0.1-0.6,0-1.3,0.2-1.8
		c0.6-1.2,2.1-1.2,2.6,0c1.4,2.8,3.8,3.9,6.7,4.1c5.9,0.4,11.4-1,16.6-3.8c5.6-3,11.1-6.3,16.6-9.5c3.3-1.9,6.6-3.9,10.3-5
		c1.3-0.4,2.7-0.7,4-1C193.7,133.2,194.1,133,194.6,132.9z M175.2,80.8c-1,4.8-1.8,9.5-2.5,14.3c1.6,0,2.9-1.1,4.4-0.9
		c0.1,0.3,0.2,0.6,0.3,0.8c0.2,2-0.2,4-1.1,5.8c-0.3,0.7-0.9,1.2-1.7,1.5c-1,0.3-2,0.6-3.2,1c-0.3,1.8-0.5,3.7-0.8,5.5
		c-0.3,2.9-0.6,5.7-0.9,8.6c-0.2,2-0.3,3.9,0.1,5.8c0.5,2.5,2,3.1,4,1.5c0.1-0.1,0.3-0.2,0.4-0.4c2.5-2.9,4.5-5.8,4.8-9.8
		c0.4-5.3,0.9-10.5,1.6-15.8c0.8-6.3,1.9-12.6,2.9-18.8c0.1-0.6,0.2-1.2,0.3-2.2C181.2,79.7,178.4,80.7,175.2,80.8z M125.9,47.7
		c0.6,0.8,0.7,0.8,0.7,1.6c-0.1,1.2-0.3,2.5-0.6,3.7c-0.4,1.9-1.5,3.1-3.6,3.5c-0.6,0.1-1.2,0.4-1.9,0.6c-0.1,1.1-0.3,2.1-0.4,3.1
		c-0.5,4.4-1,8.7-1.3,13.1c-0.1,1.5,0.1,3,0.4,4.5c0.3,1.5,1.5,1.9,2.9,1.3c0.4-0.2,0.9-0.5,1.2-0.8c2-2,3.4-4.4,4.5-6.9
		c0.2-0.5,0.2-1.1,0.3-1.7c0.2-2.4,0.3-4.9,0.6-7.3c0.4-3.6,0.8-7.2,1.3-10.7c0.5-3.6,1-7.2,1.5-10.8c0.1-0.4,0-0.8,0-1.2
		c-2.7-0.1-5.3-0.2-8.1-0.3c-0.6,3.1-1.2,6.2-1.6,9.7C123.3,48.5,124.6,48.1,125.9,47.7z M142.5,30.7c0.3,0,0.5,0.1,0.6,0
		c5.2-1.7,10-4.2,13.7-8.2c2.3-2.5,3.9-5.3,4-8.8c0.1-2.1-0.2-4.2-1.5-6c-0.9-1.3-2.1-2-3.7-1.9c-1.6,0.1-3,0.7-4.2,1.8
		c-1.9,1.8-3.1,4-4.2,6.3c-2,4.1-3.1,8.5-4,13C142.9,28.1,142.7,29.4,142.5,30.7z M103.5,116.7c-0.2,0.5-0.4,0.8-0.5,1
		c-1.6,5.5-2.7,11.1-2.4,16.8c0.1,1.4,0.4,2.9,0.8,4.3c0.8,2.4,2.5,2.7,4.1,0.8c0.8-0.9,1.4-2,1.9-3.1c1.4-3.1,2.3-6.4,3-9.8
		c0.2-1.1,0.4-2.2,0.6-3.3C107.3,122.6,105.1,120.2,103.5,116.7z M171.8,59.9c1.8-0.1,2.9-0.6,4.3-1.9c2.6-2.4,4.1-5.4,5-8.8
		c0.4-1.5,0.5-3.1,0.2-4.6c-0.3-1.9-2-2.5-3.5-1.2c-0.3,0.3-0.6,0.6-0.8,0.9c-0.7,1.1-1.4,2.2-2,3.3c-1.5,3-2.4,6.3-2.9,9.7
		C171.9,58,171.9,58.9,171.8,59.9z M200.7,139.4c-0.1,0.1-0.2,0.3-0.2,0.4c-0.1,2.4-0.3,4.9-0.3,7.3c0,0.8,0.4,1.6,0.7,2.3
		c0.6,1.1,1.6,1.5,2.8,1.1c1.1-0.3,1.9-0.9,2.4-2C208,144.6,205.3,139.9,200.7,139.4z M111,120c0.2-0.4,0.2-0.5,0.3-0.6
		c0.2-2.8,0-5.5-1-8.1c-0.2-0.5-0.5-1.1-0.9-1.5c-0.9-1-2.3-0.9-2.9,0.3c-0.4,0.8-0.6,1.7-0.5,2.6c0.2,2.4,1.1,4.5,3,6.1
		C109.6,119.2,110.2,119.5,111,120z"/>
</g>
</svg>
