<svg xmlns="http://www.w3.org/2000/svg" xmlns:xlink="http://www.w3.org/1999/xlink" width="1280" height="384" viewBox="0 0 1280 384">
  <defs>
    <path id="a" d="M0 0h1280v384H0z"/>
    <radialGradient id="d" cx="0%" cy="43.066%" r="101.058%" fx="0%" fy="43.066%" gradientTransform="matrix(.5987 .08734 -.05249 .99618 .023 .002)">
      <stop offset="0%" stop-color="#fff" stop-opacity="0.0625"/>
      <stop offset="100%" stop-color="#fff" stop-opacity="0.0625"/>
    </radialGradient>
    <path id="c" d="M343.515 176.309L798.57 449.143a1 1 0 0 1 0 1.715L457.514 655.691a1 1 0 0 1-1.029 0L1.43 382.857a1 1 0 0 1 0-1.715l341.057-204.833a1 1 0 0 1 1.029 0z"/>
    <linearGradient id="e" x1="0%" y1="42.83%" y2="57.586%">
      <stop offset="0%" stop-color="#fff" stop-opacity=".2"/>
      <stop offset="100%" stop-color="#fff" stop-opacity="0"/>
    </linearGradient>
    <path id="f" d="M343.515 96.309L798.57 369.143a1 1 0 0 1 0 1.715L457.514 575.691a1 1 0 0 1-1.029 0L1.43 302.857a1 1 0 0 1 0-1.715L342.486 96.309a1 1 0 0 1 1.029 0z"/>
    <path id="g" d="M343.515.309L798.57 273.143a1 1 0 0 1 0 1.715L457.514 479.691a1 1 0 0 1-1.029 0L1.43 206.857a1 1 0 0 1 0-1.715L342.486.309a1 1 0 0 1 1.029 0z"/>
    <path id="h" d="M343.515 176.309L798.57 449.143a1 1 0 0 1 0 1.715L457.514 655.691a1 1 0 0 1-1.029 0L1.43 382.857a1 1 0 0 1 0-1.715l341.057-204.833a1 1 0 0 1 1.029 0z"/>
    <path id="i" d="M343.515 96.309L798.57 369.143a1 1 0 0 1 0 1.715L457.514 575.691a1 1 0 0 1-1.029 0L1.43 302.857a1 1 0 0 1 0-1.715L342.486 96.309a1 1 0 0 1 1.029 0z"/>
  </defs>
  <g fill="none" fill-rule="evenodd">
    <mask id="b" fill="#fff">
      <use xlink:href="#a"/>
    </mask>
    <use fill="url(#b)" xlink:href="#a"/>
    <g mask="url(#b)" opacity=".75">
      <g opacity=".5" transform="translate(72 56)">
        <use fill="url(#d)" xlink:href="#c"/>
        <path stroke="url(#d)" d="M343.258 176.737a.5.5 0 0 0-.515 0L1.686 381.572a.5.5 0 0 0 0 .857l455.056 272.835a.5.5 0 0 0 .515 0L798.314 450.43a.5.5 0 0 0 0-.857L343.258 176.737z"/>
      </g>
      <g transform="translate(72 56)">
        <use fill="url(#e)" xlink:href="#f"/>
        <path stroke="url(#d)" d="M343.258 96.737a.5.5 0 0 0-.515 0L1.686 301.572a.5.5 0 0 0 0 .857l455.056 272.835a.5.5 0 0 0 .515 0L798.314 370.43a.5.5 0 0 0 0-.857L343.258 96.737z"/>
      </g>
      <g transform="translate(72 56)">
        <use fill="url(#e)" xlink:href="#g"/>
        <path stroke="url(#d)" d="M343.258.737a.5.5 0 0 0-.515 0L1.686 205.572a.5.5 0 0 0 0 .857l455.056 272.835a.5.5 0 0 0 .515 0L798.314 274.43a.5.5 0 0 0 0-.857L343.258.737z"/>
      </g>
    </g>
    <g mask="url(#b)">
      <g transform="translate(480 -480)">
        <use fill="url(#e)" xlink:href="#h"/>
        <path stroke="url(#d)" d="M343.258 176.737a.5.5 0 0 0-.515 0L1.686 381.572a.5.5 0 0 0 0 .857l455.056 272.835a.5.5 0 0 0 .515 0L798.314 450.43a.5.5 0 0 0 0-.857L343.258 176.737z"/>
      </g>
      <g transform="translate(480 -480)">
        <use fill="url(#e)" xlink:href="#i"/>
        <path stroke="url(#d)" d="M343.258 96.737a.5.5 0 0 0-.515 0L1.686 301.572a.5.5 0 0 0 0 .857l455.056 272.835a.5.5 0 0 0 .515 0L798.314 370.43a.5.5 0 0 0 0-.857L343.258 96.737z"/>
      </g>
    </g>
  </g>
</svg>
